<?xml version="1.0" standalone="no"?>
<!DOCTYPE svg PUBLIC "-//W3C//DTD SVG 20010904//EN"
 "http://www.w3.org/TR/2001/REC-SVG-20010904/DTD/svg10.dtd">
<svg version="1.0" xmlns="http://www.w3.org/2000/svg"
 width="700.000000pt" height="700.000000pt" viewBox="0 0 700.000000 700.000000"
 preserveAspectRatio="xMidYMid meet">
<metadata>
Created by potrace 1.14, written by Peter Selinger 2001-2017
</metadata>
<g transform="translate(0.000000,700.000000) scale(0.100000,-0.100000)"
fill="#000000" stroke="none">
<path d="M3095 6215 c-26 -27 -133 -145 -220 -244 -16 -19 -41 -46 -54 -60
-13 -14 -48 -55 -79 -90 -31 -34 -66 -73 -77 -85 -11 -12 -51 -57 -90 -100
-38 -44 -81 -91 -95 -106 -14 -14 -74 -82 -135 -151 -60 -68 -116 -131 -125
-139 -8 -8 -47 -51 -85 -94 -39 -44 -77 -87 -85 -96 -8 -9 -31 -34 -50 -56
-33 -36 -164 -182 -237 -263 -18 -20 -33 -38 -33 -41 0 -3 15 -21 33 -40 18
-19 75 -82 126 -140 52 -58 125 -139 162 -181 38 -41 78 -86 89 -100 12 -13
34 -38 50 -56 16 -17 71 -78 122 -135 50 -57 100 -112 110 -122 21 -23 22 -32
5 -43 -6 -4 -59 -61 -117 -127 -139 -157 -232 -261 -304 -339 -12 -13 -55 -61
-96 -107 -41 -46 -97 -109 -125 -140 -27 -31 -84 -94 -125 -140 -75 -83 -89
-99 -158 -175 -82 -90 -78 -80 -47 -117 15 -18 46 -53 69 -78 22 -25 77 -85
121 -135 44 -49 82 -92 85 -95 3 -3 41 -45 85 -95 44 -49 94 -106 112 -125 17
-19 40 -44 50 -56 10 -12 47 -54 83 -94 36 -40 72 -81 80 -90 31 -36 147 -164
183 -203 l39 -42 20 25 c11 14 39 45 61 70 23 25 78 85 122 135 44 49 96 107
115 128 44 49 67 75 105 118 59 66 300 334 335 373 19 21 40 44 45 50 65 73
177 198 202 226 17 19 40 44 50 56 10 12 52 58 93 104 41 45 77 87 78 92 2 5
-16 30 -40 56 -23 26 -72 81 -108 121 -36 41 -70 79 -75 85 -6 6 -66 74 -135
151 -69 77 -143 160 -166 185 -101 110 -174 196 -174 205 0 6 23 35 51 65 79
85 118 128 204 225 44 49 85 95 90 101 6 6 44 48 85 94 41 46 80 88 85 94 6 6
62 70 125 141 63 72 122 137 130 145 8 8 49 53 90 100 41 47 77 87 80 90 3 3
43 48 90 100 47 52 87 97 90 100 3 3 41 45 85 95 44 49 85 95 90 101 52 58
190 211 376 419 122 138 228 255 233 261 23 24 135 151 161 182 15 17 23 32
18 33 -4 0 -422 2 -928 2 l-920 2 -30 -30z m1150 -306 c2 -2 -22 -32 -53 -65
-58 -63 -90 -98 -322 -359 -74 -82 -148 -166 -166 -185 -17 -19 -57 -64 -89
-100 -108 -121 -121 -135 -175 -195 -50 -55 -92 -102 -244 -274 -27 -31 -56
-63 -65 -72 -9 -9 -45 -49 -81 -90 -108 -122 -323 -362 -355 -397 l-31 -33
-75 83 c-41 45 -94 105 -119 133 -25 27 -47 52 -50 55 -3 3 -45 50 -94 105
-50 55 -105 116 -123 135 l-33 35 23 26 c25 29 291 327 442 494 55 61 136 151
180 200 44 49 89 99 100 111 11 12 49 55 85 95 36 40 70 77 75 83 6 6 50 56
100 111 84 94 92 100 135 105 51 6 929 4 935 -1z m-1451 -2414 c39 -43 78 -86
86 -95 70 -74 270 -302 270 -308 0 -4 -17 -25 -38 -47 -21 -22 -96 -105 -167
-185 -138 -155 -168 -188 -261 -290 -32 -36 -90 -101 -129 -144 -38 -44 -92
-104 -120 -134 -27 -29 -55 -61 -62 -70 -11 -15 -14 -15 -36 10 -22 25 -73 82
-237 263 -30 34 -89 99 -130 145 -41 46 -81 89 -87 96 -7 7 -13 16 -13 19 0 5
223 259 250 285 4 4 71 79 175 196 6 6 26 29 46 50 19 21 57 64 83 94 67 76
197 220 220 244 19 19 19 19 49 -15 17 -19 62 -70 101 -114z"/>
<path d="M4669 5268 c-8 -8 -45 -50 -84 -93 -38 -43 -81 -90 -94 -104 -13 -14
-51 -57 -85 -95 -33 -38 -66 -74 -71 -80 -6 -6 -51 -56 -100 -111 -50 -55
-124 -138 -165 -184 -41 -46 -83 -93 -93 -105 -10 -12 -33 -37 -50 -56 -49
-54 -199 -221 -232 -259 -17 -18 -41 -46 -55 -61 -14 -15 -56 -62 -95 -105
-38 -43 -76 -85 -83 -92 -14 -13 -9 -26 18 -53 3 -3 20 -23 39 -45 27 -32 127
-144 186 -209 13 -15 161 -180 201 -226 99 -111 143 -160 182 -202 80 -85 81
-71 -20 -183 -126 -138 -152 -168 -238 -265 -84 -95 -140 -157 -156 -174 -5
-6 -52 -58 -103 -116 -52 -58 -103 -115 -115 -126 -11 -12 -41 -45 -66 -75
-25 -29 -52 -60 -61 -68 -13 -14 -51 -56 -224 -250 -16 -19 -34 -39 -40 -45
-5 -6 -46 -51 -90 -101 -114 -128 -149 -166 -161 -179 -5 -6 -68 -76 -139
-156 -71 -80 -136 -152 -144 -161 -20 -20 -47 -50 -196 -219 -66 -74 -126
-142 -135 -150 -46 -46 -140 -159 -133 -162 4 -2 423 -3 931 -3 l923 1 32 35
c18 19 89 97 157 174 69 77 129 145 135 151 30 34 90 100 169 189 49 55 92
102 95 105 3 3 37 41 76 85 38 44 72 82 76 85 3 3 28 30 55 60 27 31 83 94
124 140 41 47 96 107 121 135 25 27 63 70 86 95 89 100 239 266 250 278 7 7
13 16 13 19 0 7 -39 53 -134 158 -44 49 -99 110 -121 135 -22 25 -42 47 -45
50 -3 3 -35 38 -70 79 -36 41 -74 84 -85 96 -11 11 -38 41 -60 66 -22 24 -76
84 -119 132 -45 50 -75 91 -70 95 6 4 71 75 144 157 74 83 139 155 145 161 17
18 142 157 165 184 12 14 38 43 58 65 20 22 71 78 112 125 41 47 86 97 100
111 14 15 38 42 54 60 17 19 74 83 128 142 54 60 98 114 98 121 0 6 -8 19 -17
27 -19 16 -71 73 -137 149 -22 25 -74 83 -116 130 -42 47 -94 105 -116 130
-21 24 -46 51 -54 60 -8 9 -31 34 -50 56 -19 21 -57 64 -85 94 -27 31 -70 78
-94 105 -24 28 -74 84 -111 125 -37 41 -85 95 -107 119 -34 38 -41 42 -54 29z
m62 -536 c24 -26 118 -131 209 -232 91 -101 180 -200 197 -219 18 -20 33 -38
33 -41 0 -3 -19 -25 -41 -50 -23 -25 -74 -81 -113 -125 -135 -151 -161 -180
-166 -185 -3 -3 -35 -38 -70 -79 -36 -41 -74 -84 -85 -95 -20 -21 -146 -161
-182 -202 -98 -113 -127 -144 -134 -144 -4 0 -62 62 -130 138 -68 75 -142 157
-165 182 -100 108 -194 216 -194 223 0 5 6 14 13 21 15 16 155 171 180 200 25
28 136 152 166 185 12 14 53 59 90 100 36 41 75 85 87 97 67 74 157 176 195
221 24 28 49 52 55 52 6 1 31 -21 55 -47z m-307 -1921 c47 -54 209 -234 226
-251 8 -8 49 -53 90 -100 41 -47 81 -92 90 -100 43 -42 43 -43 -13 -107 -50
-58 -281 -317 -302 -339 -5 -6 -44 -48 -85 -94 -41 -46 -96 -106 -121 -134
-79 -87 -92 -102 -149 -166 -30 -34 -64 -72 -75 -84 -109 -120 -188 -208 -221
-245 -21 -25 -51 -58 -65 -74 l-27 -29 -438 0 c-593 1 -537 -1 -525 20 6 9 36
44 68 77 32 34 71 76 87 95 16 19 61 71 101 115 116 129 265 295 340 379 39
44 75 84 80 90 6 6 46 51 90 101 44 49 85 95 90 101 27 30 247 276 290 323 16
19 37 42 45 51 8 9 49 54 90 100 41 47 77 87 80 90 6 6 163 182 187 210 19 22
26 19 67 -29z"/>
<path d="M1751 4199 l-65 -72 23 -18 c15 -12 21 -25 17 -37 -5 -14 6 -30 41
-61 26 -23 49 -37 51 -31 5 15 16 12 41 -9 l22 -19 57 59 57 59 47 -43 47 -42
-41 -48 -41 -48 -24 23 -24 22 -25 -25 -25 -25 26 -24 c22 -20 28 -22 35 -10
8 12 13 11 31 -9 l22 -24 69 71 c37 39 68 76 68 81 0 6 -9 15 -20 21 -15 8
-19 17 -14 32 4 15 -4 29 -37 59 -46 42 -54 45 -64 28 -5 -7 -16 -2 -31 12
l-25 23 -55 -60 -55 -60 -50 44 -49 45 45 45 c42 44 45 45 63 29 24 -22 35
-21 57 3 17 19 17 21 0 40 -20 22 -45 27 -45 8 0 -6 -10 -2 -23 10 -13 12 -27
22 -33 22 -5 0 -38 -32 -73 -71z"/>
<path d="M1456 3873 l-19 -26 89 -83 c49 -46 93 -84 98 -84 5 0 3 -7 -4 -15
-12 -14 -16 -13 -36 6 -18 17 -27 19 -37 11 -11 -9 -18 -7 -32 8 -10 12 -25
18 -33 15 -9 -3 -25 4 -37 15 -16 15 -25 18 -30 10 -5 -8 -13 -5 -26 9 -25 27
-30 27 -62 -7 l-28 -29 49 -44 c45 -41 221 -202 246 -224 42 -38 46 -39 71
-15 l25 23 -24 21 c-12 12 -55 50 -94 86 -40 36 -72 71 -72 78 0 18 11 15 37
-10 19 -18 26 -20 33 -9 6 11 13 10 35 -7 15 -12 31 -19 36 -16 5 2 20 -3 34
-12 19 -13 28 -14 39 -5 10 8 16 9 21 2 17 -28 42 -30 65 -7 25 28 38 11 -110
146 -51 47 -119 109 -149 137 -31 29 -58 53 -61 52 -3 0 -14 -11 -24 -26z"/>
<path d="M5760 3893 c0 -5 -20 -30 -45 -56 -38 -42 -42 -52 -32 -68 6 -10 16
-19 21 -19 4 0 3 -6 -3 -13 -8 -11 -2 -21 26 -46 21 -18 42 -30 51 -26 8 3 23
-2 34 -11 17 -17 21 -15 66 34 l47 52 39 -39 38 -39 -35 -38 c-34 -38 -36 -38
-55 -21 -18 17 -21 17 -36 2 -9 -9 -16 -19 -16 -23 1 -18 19 -33 37 -30 11 1
28 -3 37 -11 16 -13 21 -11 54 25 79 85 77 82 58 103 -10 11 -15 24 -12 30 4
5 -11 26 -31 45 -40 38 -53 44 -53 24 0 -6 -7 -4 -18 5 -27 25 -37 21 -78 -28
-20 -25 -39 -45 -43 -45 -3 1 -24 16 -45 36 l-40 34 39 40 c34 35 40 37 50 23
14 -19 42 -12 52 13 8 22 -23 52 -38 37 -9 -9 -15 -8 -26 3 -15 15 -43 19 -43
7z"/>
<path d="M5504 3599 c-18 -20 -18 -21 21 -57 185 -169 229 -207 238 -211 6 -2
38 27 73 65 62 69 63 69 43 89 -19 20 -20 20 -63 -29 -23 -27 -48 -47 -54 -45
-6 2 -48 38 -94 80 -46 42 -97 88 -114 102 l-31 27 -19 -21z"/>
<path d="M1061 3442 c-13 -15 -40 -45 -60 -67 -70 -78 -69 -73 -29 -108 91
-82 196 -177 247 -224 l56 -52 24 25 24 26 -73 68 -74 67 27 29 26 28 25 -23
c15 -14 26 -19 30 -12 5 7 15 4 29 -9 12 -11 29 -19 38 -18 9 2 26 -5 38 -16
20 -18 21 -18 40 5 11 13 20 27 21 30 0 13 -40 40 -50 34 -6 -4 -22 3 -35 15
-16 15 -25 18 -30 10 -5 -8 -15 -5 -31 11 -13 12 -27 20 -30 16 -3 -3 -18 5
-32 18 -25 23 -25 25 -8 43 16 19 16 21 -9 40 -15 12 -24 25 -21 30 3 5 -3 17
-14 27 -15 14 -23 16 -32 7 -8 -8 -17 -6 -36 8 -31 25 -32 25 -61 -8z m130
-150 c-5 -10 -22 -29 -38 -44 l-28 -27 -47 44 -46 44 35 41 35 40 49 -41 c38
-32 47 -44 40 -57z"/>
<path d="M5316 3391 c-16 -17 -15 -20 17 -47 47 -40 184 -163 220 -198 l30
-28 46 49 c91 97 87 90 66 113 -19 21 -19 21 -65 -31 l-45 -51 -105 93 c-58
52 -109 100 -113 106 -11 18 -31 16 -51 -6z"/>
<path d="M5168 3230 c-25 -28 -25 -30 -7 -46 11 -9 19 -23 19 -29 0 -7 7 -15
15 -19 8 -3 15 -12 15 -21 0 -20 37 -72 73 -103 15 -13 27 -31 27 -40 0 -10
16 -30 36 -46 36 -28 36 -28 56 -9 19 20 19 20 -21 56 l-41 37 36 40 36 39 36
-34 c21 -19 40 -35 43 -35 3 0 14 9 24 20 17 18 16 20 -21 55 -22 19 -44 33
-50 31 -5 -2 -28 11 -49 30 -21 18 -42 31 -46 29 -4 -3 -12 2 -19 10 -7 8 -21
15 -31 15 -10 0 -21 5 -24 10 -3 6 -13 10 -21 10 -9 0 -22 7 -30 15 -21 21
-26 19 -56 -15z m119 -71 c6 -6 21 -16 34 -23 31 -15 33 -28 10 -55 l-19 -22
-19 26 c-10 15 -26 34 -35 43 -13 12 -14 19 -6 29 13 16 21 16 35 2z"/>
<path d="M5044 3089 c-19 -21 -18 -21 39 -72 31 -29 57 -55 57 -59 0 -4 -15
-23 -33 -43 l-32 -35 -55 50 c-57 51 -75 57 -93 28 -9 -13 -4 -22 23 -45 35
-29 105 -92 194 -175 28 -26 54 -48 57 -48 3 0 12 12 20 26 12 23 11 27 -5 39
-10 8 -36 30 -58 50 -42 39 -42 38 5 92 l20 22 28 -20 c15 -11 40 -33 56 -49
33 -35 44 -37 67 -12 15 18 14 21 -36 64 -54 47 -74 64 -165 148 -68 63 -67
63 -89 39z"/>
</g>
</svg>
