<svg xmlns="http://www.w3.org/2000/svg" xmlns:xlink="http://www.w3.org/1999/xlink" width="500" zoomAndPan="magnify" viewBox="0 0 375 374.999991" height="500" preserveAspectRatio="xMidYMid meet" version="1.0"><defs><g><g id="id1"/><g id="id2"/></g><clipPath id="id3"><path d="M 59.507812 37.5 L 251 37.5 L 251 281 L 59.507812 281 Z M 59.507812 37.5 " clip-rule="nonzero"/></clipPath><clipPath id="id4"><path d="M 93 88 L 284.507812 88 L 284.507812 331.5 L 93 331.5 Z M 93 88 " clip-rule="nonzero"/></clipPath></defs><g clip-path="url(#id3)"><path fill="rgb(85.099792%, 85.099792%, 85.099792%)" d="M 170.851562 200.378906 L 137.824219 163.476562 L 237.621094 52.050781 L 250.757812 37.324219 L 150.609375 37.324219 L 147.945312 40.339844 L 81.179688 114.859375 L 75.851562 120.714844 L 81.179688 126.570312 L 114.207031 163.476562 L 65.019531 218.300781 L 59.691406 224.15625 L 65.019531 230.011719 L 103.199219 272.769531 L 109.769531 280.046875 L 116.339844 272.769531 L 170.675781 212.089844 L 176.003906 206.234375 L 170.675781 200.378906 Z M 211.339844 55.066406 L 126.105469 150.34375 L 99.648438 120.890625 L 158.601562 55.242188 L 211.515625 55.242188 Z M 152.386719 206.234375 L 109.769531 253.785156 L 83.308594 224.332031 L 125.925781 176.78125 Z M 152.386719 206.234375 " fill-opacity="1" fill-rule="evenodd"/></g><g clip-path="url(#id4)"><path fill="rgb(56.469727%, 7.449341%, 99.609375%)" d="M 173.160156 168.621094 L 206.1875 205.523438 L 106.394531 316.949219 L 93.253906 331.675781 L 193.402344 331.675781 L 196.066406 328.660156 L 262.835938 254.140625 L 268.160156 248.285156 L 262.835938 242.429688 L 229.804688 205.523438 L 278.992188 150.699219 L 284.320312 144.84375 L 278.992188 138.988281 L 240.816406 96.230469 L 234.246094 88.953125 L 227.675781 96.230469 L 173.339844 156.910156 L 168.011719 162.765625 L 173.339844 168.621094 Z M 132.675781 313.933594 L 217.910156 218.65625 L 244.367188 248.109375 L 185.414062 313.757812 L 132.496094 313.757812 Z M 260.527344 144.84375 L 217.910156 192.394531 L 191.449219 162.941406 L 234.066406 115.390625 Z M 260.527344 144.84375 " fill-opacity="1" fill-rule="evenodd"/></g><g fill="rgb(100%, 100%, 100%)" fill-opacity="1"><g transform="translate(50.596153, 212.971106)"><g><path d="M 8.078125 -14.109375 C 8.503906 -13.890625 8.976562 -13.539062 9.5 -13.0625 C 10.007812 -12.601562 10.40625 -12.160156 10.6875 -11.734375 L 8.3125 -9.125 C 7.863281 -9.375 7.382812 -9.726562 6.875 -10.1875 C 6.351562 -10.664062 5.960938 -11.101562 5.703125 -11.5 L 4.8125 -10.53125 C 4.351562 -10.769531 3.875 -11.117188 3.375 -11.578125 C 2.851562 -12.054688 2.460938 -12.5 2.203125 -12.90625 L 1.3125 -11.921875 C 0.863281 -12.179688 0.390625 -12.535156 -0.109375 -12.984375 C -0.617188 -13.453125 -1.015625 -13.890625 -1.296875 -14.296875 L -4.265625 -11.046875 C -3.828125 -10.804688 -3.351562 -10.453125 -2.84375 -9.984375 C -2.34375 -9.535156 -1.945312 -9.097656 -1.65625 -8.671875 C -1.226562 -8.441406 -0.753906 -8.085938 -0.234375 -7.609375 C 0.265625 -7.148438 0.660156 -6.710938 0.953125 -6.296875 C 1.378906 -6.066406 1.851562 -5.710938 2.375 -5.234375 C 2.882812 -4.773438 3.28125 -4.335938 3.5625 -3.921875 L 1.1875 -1.3125 C 0.75 -1.550781 0.273438 -1.898438 -0.234375 -2.359375 C -0.753906 -2.835938 -1.148438 -3.28125 -1.421875 -3.6875 C -1.867188 -3.925781 -2.34375 -4.273438 -2.84375 -4.734375 C -3.363281 -5.210938 -3.757812 -5.65625 -4.03125 -6.0625 C -4.476562 -6.3125 -4.953125 -6.660156 -5.453125 -7.109375 C -5.960938 -7.578125 -6.359375 -8.019531 -6.640625 -8.4375 C -7.085938 -8.6875 -7.554688 -9.035156 -8.046875 -9.484375 C -8.566406 -9.960938 -8.96875 -10.40625 -9.25 -10.8125 C -9.6875 -11.050781 -10.15625 -11.398438 -10.65625 -11.859375 C -11.1875 -12.335938 -11.585938 -12.78125 -11.859375 -13.1875 C -12.296875 -13.425781 -12.765625 -13.773438 -13.265625 -14.234375 C -13.796875 -14.710938 -14.195312 -15.15625 -14.46875 -15.5625 C -14.90625 -15.8125 -15.375 -16.160156 -15.875 -16.609375 C -16.40625 -17.085938 -16.804688 -17.53125 -17.078125 -17.9375 L -8.765625 -27.0625 C -8.335938 -26.84375 -7.859375 -26.492188 -7.328125 -26.015625 C -6.828125 -25.566406 -6.4375 -25.125 -6.15625 -24.6875 L -4.96875 -25.984375 C -4.539062 -25.765625 -4.0625 -25.414062 -3.53125 -24.9375 C -3.03125 -24.476562 -2.640625 -24.035156 -2.359375 -23.609375 L -2.953125 -22.96875 C -2.523438 -22.738281 -2.046875 -22.382812 -1.515625 -21.90625 C -1.015625 -21.445312 -0.625 -21.007812 -0.34375 -20.59375 L -2.125 -18.625 C -1.6875 -18.40625 -1.207031 -18.054688 -0.6875 -17.578125 C -0.195312 -17.128906 0.191406 -16.6875 0.484375 -16.25 L 1.078125 -16.90625 C 1.515625 -16.664062 1.988281 -16.3125 2.5 -15.84375 C 3 -15.394531 3.394531 -14.957031 3.6875 -14.53125 L 4.578125 -15.515625 C 5.003906 -15.285156 5.476562 -14.929688 6 -14.453125 C 6.5 -13.992188 6.894531 -13.554688 7.1875 -13.140625 Z M -2.71875 -17.984375 C -3.15625 -18.234375 -3.625 -18.585938 -4.125 -19.046875 C -4.65625 -19.523438 -5.054688 -19.960938 -5.328125 -20.359375 C -5.765625 -20.609375 -6.234375 -20.960938 -6.734375 -21.421875 C -7.265625 -21.898438 -7.664062 -22.335938 -7.9375 -22.734375 L -12.09375 -18.171875 C -11.664062 -17.941406 -11.1875 -17.585938 -10.65625 -17.109375 C -10.15625 -16.648438 -9.765625 -16.210938 -9.484375 -15.796875 C -9.054688 -15.566406 -8.578125 -15.210938 -8.046875 -14.734375 C -7.546875 -14.273438 -7.15625 -13.835938 -6.875 -13.421875 Z M -2.71875 -17.984375 "/></g></g></g><g fill="rgb(100%, 100%, 100%)" fill-opacity="1"><g transform="translate(70.163345, 191.480994)"><g><path d="M -4.96875 -25.984375 C -4.539062 -25.765625 -4.0625 -25.414062 -3.53125 -24.9375 C -3.03125 -24.476562 -2.640625 -24.035156 -2.359375 -23.609375 C -1.929688 -23.390625 -1.453125 -23.039062 -0.921875 -22.5625 C -0.421875 -22.101562 -0.03125 -21.660156 0.25 -21.234375 C 0.6875 -21.015625 1.164062 -20.664062 1.6875 -20.1875 C 2.175781 -19.738281 2.566406 -19.296875 2.859375 -18.859375 C 3.296875 -18.628906 3.769531 -18.28125 4.28125 -17.8125 C 4.78125 -17.363281 5.175781 -16.921875 5.46875 -16.484375 C 5.894531 -16.265625 6.367188 -15.914062 6.890625 -15.4375 C 7.390625 -14.976562 7.785156 -14.535156 8.078125 -14.109375 C 8.503906 -13.890625 8.976562 -13.539062 9.5 -13.0625 C 10.007812 -12.601562 10.40625 -12.160156 10.6875 -11.734375 L 8.3125 -9.125 C 7.863281 -9.375 7.382812 -9.726562 6.875 -10.1875 C 6.351562 -10.664062 5.960938 -11.101562 5.703125 -11.5 L 4.21875 -9.875 C 3.769531 -10.125 3.296875 -10.476562 2.796875 -10.9375 C 2.273438 -11.414062 1.878906 -11.851562 1.609375 -12.25 L 0.71875 -11.28125 C 0.257812 -11.53125 -0.21875 -11.878906 -0.71875 -12.328125 C -1.226562 -12.796875 -1.617188 -13.238281 -1.890625 -13.65625 L -3.078125 -12.34375 C -3.535156 -12.59375 -4.007812 -12.941406 -4.5 -13.390625 C -5.019531 -13.867188 -5.414062 -14.3125 -5.6875 -14.71875 L -6.875 -13.421875 C -6.4375 -13.191406 -5.957031 -12.835938 -5.4375 -12.359375 C -4.945312 -11.910156 -4.554688 -11.472656 -4.265625 -11.046875 C -3.828125 -10.804688 -3.351562 -10.453125 -2.84375 -9.984375 C -2.34375 -9.535156 -1.945312 -9.097656 -1.65625 -8.671875 C -1.226562 -8.441406 -0.753906 -8.085938 -0.234375 -7.609375 C 0.265625 -7.148438 0.660156 -6.710938 0.953125 -6.296875 C 1.378906 -6.066406 1.851562 -5.710938 2.375 -5.234375 C 2.882812 -4.773438 3.28125 -4.335938 3.5625 -3.921875 L 1.1875 -1.3125 C 0.75 -1.550781 0.273438 -1.898438 -0.234375 -2.359375 C -0.753906 -2.835938 -1.148438 -3.28125 -1.421875 -3.6875 C -1.867188 -3.925781 -2.34375 -4.273438 -2.84375 -4.734375 C -3.363281 -5.210938 -3.757812 -5.65625 -4.03125 -6.0625 C -4.476562 -6.3125 -4.953125 -6.660156 -5.453125 -7.109375 C -5.960938 -7.578125 -6.359375 -8.019531 -6.640625 -8.4375 C -7.085938 -8.6875 -7.554688 -9.035156 -8.046875 -9.484375 C -8.566406 -9.960938 -8.96875 -10.40625 -9.25 -10.8125 C -9.6875 -11.050781 -10.15625 -11.398438 -10.65625 -11.859375 C -11.1875 -12.335938 -11.585938 -12.78125 -11.859375 -13.1875 C -12.296875 -13.425781 -12.765625 -13.773438 -13.265625 -14.234375 C -13.796875 -14.710938 -14.195312 -15.15625 -14.46875 -15.5625 C -14.90625 -15.8125 -15.375 -16.160156 -15.875 -16.609375 C -16.40625 -17.085938 -16.804688 -17.53125 -17.078125 -17.9375 L -14.109375 -21.1875 C -13.679688 -20.96875 -13.203125 -20.617188 -12.671875 -20.140625 C -12.171875 -19.691406 -11.78125 -19.25 -11.5 -18.8125 L -10.609375 -19.796875 C -10.179688 -19.566406 -9.703125 -19.210938 -9.171875 -18.734375 C -8.671875 -18.273438 -8.28125 -17.835938 -8 -17.421875 L -7.109375 -18.40625 C -6.679688 -18.175781 -6.203125 -17.820312 -5.671875 -17.34375 C -5.171875 -16.882812 -4.78125 -16.445312 -4.5 -16.03125 L -3.3125 -17.328125 C -2.875 -17.097656 -2.394531 -16.742188 -1.875 -16.265625 C -1.382812 -15.816406 -0.992188 -15.378906 -0.703125 -14.953125 L 0.484375 -16.25 C 0.0234375 -16.507812 -0.445312 -16.863281 -0.9375 -17.3125 C -1.457031 -17.789062 -1.851562 -18.226562 -2.125 -18.625 C -2.570312 -18.875 -3.046875 -19.226562 -3.546875 -19.6875 C -4.078125 -20.164062 -4.472656 -20.601562 -4.734375 -21 C -5.179688 -21.25 -5.65625 -21.601562 -6.15625 -22.0625 C -6.6875 -22.539062 -7.082031 -22.976562 -7.34375 -23.375 C -7.789062 -23.632812 -8.265625 -23.988281 -8.765625 -24.4375 C -9.296875 -24.914062 -9.691406 -25.351562 -9.953125 -25.75 L -7.578125 -28.359375 C -7.148438 -28.140625 -6.671875 -27.789062 -6.140625 -27.3125 C -5.640625 -26.863281 -5.25 -26.421875 -4.96875 -25.984375 Z M -4.96875 -25.984375 "/></g></g></g><g fill="rgb(100%, 100%, 100%)" fill-opacity="1"><g transform="translate(89.730538, 169.990882)"><g><path d="M 2.859375 -18.859375 C 3.296875 -18.628906 3.769531 -18.28125 4.28125 -17.8125 C 4.78125 -17.363281 5.175781 -16.921875 5.46875 -16.484375 C 5.894531 -16.265625 6.367188 -15.914062 6.890625 -15.4375 C 7.390625 -14.976562 7.785156 -14.535156 8.078125 -14.109375 L 6.890625 -12.8125 C 7.316406 -12.59375 7.789062 -12.242188 8.3125 -11.765625 C 8.820312 -11.304688 9.21875 -10.863281 9.5 -10.4375 L 2.375 -2.609375 C 1.9375 -2.859375 1.460938 -3.210938 0.953125 -3.671875 C 0.429688 -4.148438 0.0351562 -4.585938 -0.234375 -4.984375 L -1.421875 -3.6875 C -1.867188 -3.925781 -2.34375 -4.273438 -2.84375 -4.734375 C -3.363281 -5.210938 -3.757812 -5.65625 -4.03125 -6.0625 L -1.65625 -8.671875 C -1.226562 -8.441406 -0.753906 -8.085938 -0.234375 -7.609375 C 0.265625 -7.148438 0.660156 -6.710938 0.953125 -6.296875 L 5.703125 -11.5 C 5.242188 -11.75 4.765625 -12.101562 4.265625 -12.5625 C 3.742188 -13.039062 3.351562 -13.476562 3.09375 -13.875 C 2.632812 -14.132812 2.15625 -14.488281 1.65625 -14.9375 C 1.144531 -15.40625 0.753906 -15.84375 0.484375 -16.25 L -5.453125 -9.734375 C -5.898438 -9.992188 -6.367188 -10.347656 -6.859375 -10.796875 C -7.378906 -11.273438 -7.78125 -11.710938 -8.0625 -12.109375 L -9.25 -10.8125 C -9.6875 -11.050781 -10.15625 -11.398438 -10.65625 -11.859375 C -11.1875 -12.335938 -11.585938 -12.78125 -11.859375 -13.1875 C -12.296875 -13.425781 -12.765625 -13.773438 -13.265625 -14.234375 C -13.796875 -14.710938 -14.195312 -15.15625 -14.46875 -15.5625 L -13.28125 -16.859375 C -13.71875 -17.117188 -14.1875 -17.472656 -14.6875 -17.921875 C -15.21875 -18.398438 -15.617188 -18.835938 -15.890625 -19.234375 L -8.765625 -27.0625 C -8.335938 -26.84375 -7.859375 -26.492188 -7.328125 -26.015625 C -6.828125 -25.566406 -6.4375 -25.125 -6.15625 -24.6875 L -4.96875 -25.984375 C -4.539062 -25.765625 -4.0625 -25.414062 -3.53125 -24.9375 C -3.03125 -24.476562 -2.640625 -24.035156 -2.359375 -23.609375 L -4.734375 -21 C -5.179688 -21.25 -5.65625 -21.601562 -6.15625 -22.0625 C -6.6875 -22.539062 -7.082031 -22.976562 -7.34375 -23.375 L -12.09375 -18.171875 C -11.664062 -17.941406 -11.1875 -17.585938 -10.65625 -17.109375 C -10.15625 -16.648438 -9.765625 -16.210938 -9.484375 -15.796875 C -9.054688 -15.566406 -8.578125 -15.210938 -8.046875 -14.734375 C -7.546875 -14.273438 -7.15625 -13.835938 -6.875 -13.421875 L -0.9375 -19.9375 C -0.5 -19.71875 -0.0195312 -19.367188 0.5 -18.890625 C 0.988281 -18.441406 1.378906 -18 1.671875 -17.5625 Z M 2.859375 -18.859375 "/></g></g></g><g fill="rgb(100%, 100%, 100%)" fill-opacity="1"><g transform="translate(261.000857, 228.942449)"><g><path d="M -4.25 -21.625 C -3.90625 -21.445312 -3.507812 -21.160156 -3.0625 -20.765625 C -2.644531 -20.378906 -2.3125 -20.015625 -2.0625 -19.671875 C -1.71875 -19.484375 -1.320312 -19.191406 -0.875 -18.796875 C -0.457031 -18.421875 -0.128906 -18.054688 0.109375 -17.703125 C 0.472656 -17.503906 0.867188 -17.210938 1.296875 -16.828125 C 1.710938 -16.453125 2.046875 -16.085938 2.296875 -15.734375 C 2.648438 -15.546875 3.046875 -15.253906 3.484375 -14.859375 C 3.910156 -14.472656 4.25 -14.109375 4.5 -13.765625 C 4.84375 -13.578125 5.234375 -13.285156 5.671875 -12.890625 C 6.097656 -12.515625 6.429688 -12.148438 6.671875 -11.796875 C 7.023438 -11.609375 7.421875 -11.316406 7.859375 -10.921875 C 8.273438 -10.546875 8.609375 -10.179688 8.859375 -9.828125 L 6.890625 -7.65625 C 6.503906 -7.851562 6.101562 -8.140625 5.6875 -8.515625 C 5.25 -8.910156 4.921875 -9.28125 4.703125 -9.625 C 4.328125 -9.820312 3.925781 -10.109375 3.5 -10.484375 C 3.0625 -10.878906 2.738281 -11.25 2.53125 -11.59375 C 2.144531 -11.78125 1.738281 -12.066406 1.3125 -12.453125 C 0.875 -12.847656 0.546875 -13.21875 0.328125 -13.5625 L -3.609375 -9.1875 C -3.253906 -9 -2.859375 -8.707031 -2.421875 -8.3125 C -1.992188 -7.925781 -1.65625 -7.5625 -1.40625 -7.21875 C -1.0625 -7.03125 -0.671875 -6.738281 -0.234375 -6.34375 C 0.191406 -5.96875 0.523438 -5.601562 0.765625 -5.25 C 1.117188 -5.0625 1.515625 -4.769531 1.953125 -4.375 C 2.367188 -4 2.703125 -3.632812 2.953125 -3.28125 L 0.984375 -1.09375 C 0.609375 -1.300781 0.210938 -1.59375 -0.203125 -1.96875 C -0.640625 -2.363281 -0.972656 -2.726562 -1.203125 -3.0625 C -1.566406 -3.269531 -1.960938 -3.5625 -2.390625 -3.9375 C -2.828125 -4.332031 -3.15625 -4.695312 -3.375 -5.03125 C -3.75 -5.226562 -4.148438 -5.519531 -4.578125 -5.90625 C -5.015625 -6.300781 -5.347656 -6.664062 -5.578125 -7 C -5.953125 -7.207031 -6.347656 -7.5 -6.765625 -7.875 C -7.191406 -8.257812 -7.523438 -8.625 -7.765625 -8.96875 C -8.128906 -9.175781 -8.519531 -9.46875 -8.9375 -9.84375 C -9.382812 -10.238281 -9.71875 -10.601562 -9.9375 -10.9375 C -10.3125 -11.132812 -10.707031 -11.425781 -11.125 -11.8125 C -11.570312 -12.207031 -11.90625 -12.566406 -12.125 -12.890625 C -12.5 -13.097656 -12.898438 -13.394531 -13.328125 -13.78125 C -13.753906 -14.164062 -14.082031 -14.53125 -14.3125 -14.875 L -12.34375 -17.0625 C -11.988281 -16.863281 -11.597656 -16.570312 -11.171875 -16.1875 C -10.742188 -15.800781 -10.40625 -15.429688 -10.15625 -15.078125 C -9.8125 -14.898438 -9.414062 -14.613281 -8.96875 -14.21875 C -8.550781 -13.832031 -8.21875 -13.46875 -7.96875 -13.125 C -7.625 -12.9375 -7.226562 -12.644531 -6.78125 -12.25 C -6.363281 -11.875 -6.035156 -11.507812 -5.796875 -11.15625 L -1.859375 -15.53125 C -2.234375 -15.726562 -2.628906 -16.015625 -3.046875 -16.390625 C -3.492188 -16.785156 -3.820312 -17.15625 -4.03125 -17.5 C -4.414062 -17.6875 -4.816406 -17.972656 -5.234375 -18.359375 C -5.679688 -18.753906 -6.007812 -19.117188 -6.21875 -19.453125 C -6.601562 -19.648438 -7.007812 -19.941406 -7.4375 -20.328125 C -7.863281 -20.710938 -8.1875 -21.082031 -8.40625 -21.4375 L -6.4375 -23.609375 C -6.082031 -23.410156 -5.691406 -23.117188 -5.265625 -22.734375 C -4.835938 -22.347656 -4.5 -21.976562 -4.25 -21.625 Z M -4.25 -21.625 "/></g></g><g transform="translate(270.839181, 218.015354)"><g><path d="M 5.671875 -12.890625 C 6.097656 -12.515625 6.429688 -12.148438 6.671875 -11.796875 C 7.023438 -11.609375 7.421875 -11.316406 7.859375 -10.921875 C 8.273438 -10.546875 8.609375 -10.179688 8.859375 -9.828125 L 6.890625 -7.65625 C 6.503906 -7.851562 6.101562 -8.140625 5.6875 -8.515625 C 5.25 -8.910156 4.921875 -9.28125 4.703125 -9.625 C 4.328125 -9.820312 3.925781 -10.109375 3.5 -10.484375 C 3.0625 -10.878906 2.738281 -11.25 2.53125 -11.59375 L -1.40625 -7.21875 C -1.0625 -7.03125 -0.671875 -6.738281 -0.234375 -6.34375 C 0.191406 -5.96875 0.523438 -5.601562 0.765625 -5.25 C 1.117188 -5.0625 1.515625 -4.769531 1.953125 -4.375 C 2.367188 -4 2.703125 -3.632812 2.953125 -3.28125 L 0.984375 -1.09375 C 0.609375 -1.300781 0.210938 -1.59375 -0.203125 -1.96875 C -0.640625 -2.363281 -0.972656 -2.726562 -1.203125 -3.0625 C -1.566406 -3.269531 -1.960938 -3.5625 -2.390625 -3.9375 C -2.828125 -4.332031 -3.15625 -4.695312 -3.375 -5.03125 L -2.640625 -5.859375 C -3.015625 -6.046875 -3.414062 -6.332031 -3.84375 -6.71875 C -4.28125 -7.113281 -4.613281 -7.484375 -4.84375 -7.828125 C -5.21875 -8.023438 -5.613281 -8.3125 -6.03125 -8.6875 C -6.457031 -9.070312 -6.789062 -9.441406 -7.03125 -9.796875 L -6.53125 -10.34375 C -6.90625 -10.539062 -7.300781 -10.828125 -7.71875 -11.203125 C -8.164062 -11.597656 -8.492188 -11.96875 -8.703125 -12.3125 L -7.96875 -13.125 C -8.34375 -13.320312 -8.738281 -13.613281 -9.15625 -14 C -9.601562 -14.394531 -9.9375 -14.753906 -10.15625 -15.078125 L -9.671875 -15.609375 C -10.046875 -15.828125 -10.445312 -16.128906 -10.875 -16.515625 C -11.300781 -16.898438 -11.628906 -17.257812 -11.859375 -17.59375 L -8.90625 -20.890625 C -8.539062 -20.679688 -8.144531 -20.382812 -7.71875 -20 C -7.289062 -19.613281 -6.957031 -19.25 -6.71875 -18.90625 L -6.21875 -19.453125 C -5.875 -19.265625 -5.476562 -18.972656 -5.03125 -18.578125 C -4.613281 -18.191406 -4.28125 -17.832031 -4.03125 -17.5 L -3.296875 -18.3125 C -2.953125 -18.125 -2.554688 -17.832031 -2.109375 -17.4375 C -1.691406 -17.0625 -1.363281 -16.695312 -1.125 -16.34375 L -0.640625 -16.890625 C -0.265625 -16.691406 0.132812 -16.398438 0.5625 -16.015625 C 0.976562 -15.640625 1.304688 -15.273438 1.546875 -14.921875 C 1.910156 -14.734375 2.3125 -14.441406 2.75 -14.046875 C 3.175781 -13.660156 3.507812 -13.296875 3.75 -12.953125 L 4.5 -13.765625 C 4.84375 -13.578125 5.234375 -13.285156 5.671875 -12.890625 Z M -0.421875 -12.734375 C -0.796875 -12.941406 -1.191406 -13.234375 -1.609375 -13.609375 C -2.035156 -13.992188 -2.367188 -14.359375 -2.609375 -14.703125 L -3.09375 -14.15625 C -3.457031 -14.363281 -3.847656 -14.65625 -4.265625 -15.03125 C -4.710938 -15.425781 -5.046875 -15.789062 -5.265625 -16.125 L -6.734375 -14.484375 C -6.390625 -14.296875 -5.992188 -14.003906 -5.546875 -13.609375 C -5.128906 -13.234375 -4.800781 -12.867188 -4.5625 -12.515625 L -5.0625 -11.96875 C -4.695312 -11.769531 -4.300781 -11.476562 -3.875 -11.09375 C -3.457031 -10.71875 -3.125 -10.351562 -2.875 -10 Z M -0.421875 -12.734375 "/></g></g><g transform="translate(280.677505, 207.088259)"><g><path d="M 6.671875 -11.796875 C 7.023438 -11.609375 7.421875 -11.316406 7.859375 -10.921875 C 8.273438 -10.546875 8.609375 -10.179688 8.859375 -9.828125 L 1.96875 -2.1875 C 1.59375 -2.394531 1.195312 -2.6875 0.78125 -3.0625 C 0.34375 -3.457031 0.0078125 -3.820312 -0.21875 -4.15625 C -0.582031 -4.363281 -0.976562 -4.65625 -1.40625 -5.03125 C -1.84375 -5.425781 -2.171875 -5.789062 -2.390625 -6.125 C -2.765625 -6.320312 -3.164062 -6.613281 -3.59375 -7 C -4.03125 -7.394531 -4.363281 -7.757812 -4.59375 -8.09375 C -4.96875 -8.300781 -5.363281 -8.59375 -5.78125 -8.96875 C -6.207031 -9.351562 -6.539062 -9.71875 -6.78125 -10.0625 C -7.144531 -10.269531 -7.535156 -10.5625 -7.953125 -10.9375 C -8.398438 -11.332031 -8.734375 -11.695312 -8.953125 -12.03125 C -9.328125 -12.226562 -9.722656 -12.519531 -10.140625 -12.90625 C -10.585938 -13.300781 -10.921875 -13.660156 -11.140625 -13.984375 C -11.515625 -14.191406 -11.914062 -14.488281 -12.34375 -14.875 C -12.769531 -15.257812 -13.097656 -15.625 -13.328125 -15.96875 L -11.359375 -18.140625 C -11.003906 -17.953125 -10.613281 -17.664062 -10.1875 -17.28125 C -9.757812 -16.894531 -9.421875 -16.519531 -9.171875 -16.15625 C -8.828125 -15.988281 -8.429688 -15.707031 -7.984375 -15.3125 C -7.566406 -14.925781 -7.234375 -14.554688 -6.984375 -14.203125 C -6.640625 -14.023438 -6.242188 -13.738281 -5.796875 -13.34375 C -5.378906 -12.96875 -5.050781 -12.597656 -4.8125 -12.234375 C -4.445312 -12.046875 -4.050781 -11.757812 -3.625 -11.375 C -3.207031 -11 -2.875 -10.628906 -2.625 -10.265625 C -2.269531 -10.085938 -1.875 -9.800781 -1.4375 -9.40625 C -1.007812 -9.019531 -0.671875 -8.648438 -0.421875 -8.296875 C -0.078125 -8.117188 0.3125 -7.832031 0.75 -7.4375 C 1.175781 -7.0625 1.507812 -6.691406 1.75 -6.328125 Z M 6.671875 -11.796875 "/></g></g><g transform="translate(290.515829, 196.161165)"><g><path d="M 6.671875 -11.796875 C 7.023438 -11.609375 7.421875 -11.316406 7.859375 -10.921875 C 8.273438 -10.546875 8.609375 -10.179688 8.859375 -9.828125 L 1.96875 -2.1875 C 1.59375 -2.394531 1.195312 -2.6875 0.78125 -3.0625 C 0.34375 -3.457031 0.0078125 -3.820312 -0.21875 -4.15625 C -0.582031 -4.363281 -0.976562 -4.65625 -1.40625 -5.03125 C -1.84375 -5.425781 -2.171875 -5.789062 -2.390625 -6.125 C -2.765625 -6.320312 -3.164062 -6.613281 -3.59375 -7 C -4.03125 -7.394531 -4.363281 -7.757812 -4.59375 -8.09375 C -4.96875 -8.300781 -5.363281 -8.59375 -5.78125 -8.96875 C -6.207031 -9.351562 -6.539062 -9.71875 -6.78125 -10.0625 C -7.144531 -10.269531 -7.535156 -10.5625 -7.953125 -10.9375 C -8.398438 -11.332031 -8.734375 -11.695312 -8.953125 -12.03125 C -9.328125 -12.226562 -9.722656 -12.519531 -10.140625 -12.90625 C -10.585938 -13.300781 -10.921875 -13.660156 -11.140625 -13.984375 C -11.515625 -14.191406 -11.914062 -14.488281 -12.34375 -14.875 C -12.769531 -15.257812 -13.097656 -15.625 -13.328125 -15.96875 L -11.359375 -18.140625 C -11.003906 -17.953125 -10.613281 -17.664062 -10.1875 -17.28125 C -9.757812 -16.894531 -9.421875 -16.519531 -9.171875 -16.15625 C -8.828125 -15.988281 -8.429688 -15.707031 -7.984375 -15.3125 C -7.566406 -14.925781 -7.234375 -14.554688 -6.984375 -14.203125 C -6.640625 -14.023438 -6.242188 -13.738281 -5.796875 -13.34375 C -5.378906 -12.96875 -5.050781 -12.597656 -4.8125 -12.234375 C -4.445312 -12.046875 -4.050781 -11.757812 -3.625 -11.375 C -3.207031 -11 -2.875 -10.628906 -2.625 -10.265625 C -2.269531 -10.085938 -1.875 -9.800781 -1.4375 -9.40625 C -1.007812 -9.019531 -0.671875 -8.648438 -0.421875 -8.296875 C -0.078125 -8.117188 0.3125 -7.832031 0.75 -7.4375 C 1.175781 -7.0625 1.507812 -6.691406 1.75 -6.328125 Z M 6.671875 -11.796875 "/></g></g><g transform="translate(300.354153, 185.23407)"><g><path d="M 2.296875 -15.734375 C 2.648438 -15.546875 3.046875 -15.253906 3.484375 -14.859375 C 3.910156 -14.472656 4.25 -14.109375 4.5 -13.765625 C 4.84375 -13.578125 5.234375 -13.285156 5.671875 -12.890625 C 6.097656 -12.515625 6.429688 -12.148438 6.671875 -11.796875 L 5.6875 -10.71875 C 6.039062 -10.519531 6.4375 -10.222656 6.875 -9.828125 C 7.289062 -9.453125 7.625 -9.09375 7.875 -8.75 L 1.96875 -2.1875 C 1.59375 -2.394531 1.195312 -2.6875 0.78125 -3.0625 C 0.34375 -3.457031 0.0078125 -3.820312 -0.21875 -4.15625 L -1.203125 -3.0625 C -1.566406 -3.269531 -1.960938 -3.5625 -2.390625 -3.9375 C -2.828125 -4.332031 -3.15625 -4.695312 -3.375 -5.03125 L -1.40625 -7.21875 C -1.0625 -7.03125 -0.671875 -6.738281 -0.234375 -6.34375 C 0.191406 -5.96875 0.523438 -5.601562 0.765625 -5.25 L 4.703125 -9.625 C 4.328125 -9.820312 3.925781 -10.109375 3.5 -10.484375 C 3.0625 -10.878906 2.738281 -11.25 2.53125 -11.59375 C 2.144531 -11.78125 1.738281 -12.066406 1.3125 -12.453125 C 0.875 -12.847656 0.546875 -13.21875 0.328125 -13.5625 L -4.59375 -8.09375 C -4.96875 -8.300781 -5.363281 -8.59375 -5.78125 -8.96875 C -6.207031 -9.351562 -6.539062 -9.71875 -6.78125 -10.0625 L -7.765625 -8.96875 C -8.128906 -9.175781 -8.519531 -9.46875 -8.9375 -9.84375 C -9.382812 -10.238281 -9.71875 -10.601562 -9.9375 -10.9375 C -10.3125 -11.132812 -10.707031 -11.425781 -11.125 -11.8125 C -11.570312 -12.207031 -11.90625 -12.566406 -12.125 -12.890625 L -11.140625 -13.984375 C -11.515625 -14.191406 -11.914062 -14.488281 -12.34375 -14.875 C -12.769531 -15.257812 -13.097656 -15.625 -13.328125 -15.96875 L -7.421875 -22.53125 C -7.066406 -22.320312 -6.675781 -22.023438 -6.25 -21.640625 C -5.820312 -21.253906 -5.484375 -20.890625 -5.234375 -20.546875 L -4.25 -21.625 C -3.90625 -21.445312 -3.507812 -21.160156 -3.0625 -20.765625 C -2.644531 -20.378906 -2.3125 -20.015625 -2.0625 -19.671875 L -4.03125 -17.5 C -4.414062 -17.6875 -4.816406 -17.972656 -5.234375 -18.359375 C -5.679688 -18.753906 -6.007812 -19.117188 -6.21875 -19.453125 L -10.15625 -15.078125 C -9.8125 -14.898438 -9.414062 -14.613281 -8.96875 -14.21875 C -8.550781 -13.832031 -8.21875 -13.46875 -7.96875 -13.125 C -7.625 -12.9375 -7.226562 -12.644531 -6.78125 -12.25 C -6.363281 -11.875 -6.035156 -11.507812 -5.796875 -11.15625 L -0.875 -16.625 C -0.507812 -16.414062 -0.113281 -16.117188 0.3125 -15.734375 C 0.726562 -15.359375 1.0625 -15 1.3125 -14.65625 Z M 2.296875 -15.734375 "/></g></g></g></svg>